<svg enable-background="new 0 0 663.4 131.9" viewBox="0 0 663.4 131.9" xmlns="http://www.w3.org/2000/svg"><path d="m115.4 2.4c-32-4.5-64.3-2.8-95.8 5.1-9.2 2.3-20.6 12.1-19.5 24.9 1.5 18 3.1 36.1 4.6 54.1.6 6.6 4.4 11 9.1 13.4l.1 13.6c0 6.3 5.4 11.4 12 11.4 2.6 0 5.1-.8 7.1-2.3l3.9-2.8c.5-.4 1.1-.4 1.6 0 1.4.9 3 1.5 4.8 1.6l19.2 1.6h.9c1.4 0 2.7-.3 3.8-.7.8-.3 1.6-.2 2.2.3l8.1 6.6c2.2 1.8 4.9 2.7 7.8 2.7 5.4 0 10.1-3.5 11.5-8.5l4.5-16.9c2.4.4 4.6.8 6.6 1.3 9.5 2.6 19.2-3.9 20.4-16 2.2-21.2 4.3-42.4 6.5-63.5 1.3-13.7-8.9-24.4-19.4-25.9zm-84.7 54.9c2.1-2 5.4-1.9 7.4.2 3.7 3.9 8.6 6 13.7 6 5.2 0 10.1-2.1 13.7-6 2-2.1 5.3-2.2 7.4-.2s2.2 5.3.2 7.4c-5.7 6-13.2 9.2-21.3 9.2s-15.6-3.3-21.3-9.2c-2-2.1-1.9-5.4.2-7.4zm68.2 36.2v.1c0 .2-.1.4-.1.6l-7.4 27.7c-.7 2.7-3.3 4.3-6.1 4.3-1.5 0-3-.5-4.3-1.5l-10.9-8.9c-.9-.8-2.2-2.1-2.8-4.3-.1-.2-.3-.6-.4 0-.3 3.3-.9 5.9-8.1 5.3l-13.5-1.1c-5.7-.5-5.2-3.2-5.1-6.5 0-.3-.2-.3-.3 0-.5 1-1.3 2-2.2 2.7l-8.1 5.9c-1.2.9-2.5 1.2-3.9 1.2-3.3 0-6.4-2.4-6.5-5.8l-.1-20.2v-.2c0-.3 0-.5.1-.8 0-.1 0-.1 0-.2 0-.2.1-.4.1-.6v-.1c.1-.2.2-.5.3-.7 0-.1.1-.1.1-.2.1-.2.2-.3.3-.5l.1-.1c.1-.2.3-.4.5-.6l.1-.1c.1-.1.3-.3.5-.4.1 0 .1-.1.2-.1.2-.1.4-.3.6-.4s.4-.2.7-.3c.1 0 .1-.1.2-.1.2-.1.4-.1.6-.2h.1c.2-.1.5-.1.7-.2h.2c.2 0 .4 0 .6-.1h.2.7.1c.3 0 .5.1.8.1.3.1.5.1.8.2 0 0 .1 0 .1.1.2.1.5.2.7.3l.1.1c.2.1.5.3.7.5l6.9 5.2.6.4c1.3 1 3 2.5 3.5 5.4.1.5.4.3.5 0 .8-3.2 2.4-6.1 7.6-5.9l11.5.5c6.8.3 6.8 2.7 7 7.4 0 .4.3.4.4 0 .7-2.7 2.1-3.9 3.1-4.4l18.9-9.5c.2-.1.5-.2.7-.3h.1c.2-.1.4-.1.7-.2h.1c.2 0 .4-.1.7-.1h.7.1.6.1c.2 0 .4.1.6.1h.1c.2 0 .4.1.6.2h.1c.2.1.4.1.6.2l.6.3s.1 0 .1.1c.2.1.3.2.5.3h.1c.2.1.3.2.4.3 0 0 .1 0 .1.1l.4.4.1.1c.1.1.2.3.3.4v.1c.1.2.2.3.3.5 0 0 0 .1.1.1.1.2.2.3.3.5s.1.3.2.5v.1c0 .2.1.4.1.6v.1.5.1c.2.6.2.8.2 1z"/><g fill="#3c3b3b"><path d="m192.7 70.1-13.7-27.6c-.2-.4-.7-.7-1.2-.7h-8.9c-.7 0-1.3.6-1.3 1.3v43.5c0 .7.6 1.3 1.3 1.3h7.2c.7 0 1.3-.6 1.3-1.3v-19.7c0-1.4 1.8-1.8 2.5-.6l10.7 20.9c.2.4.7.7 1.2.7h4.1c.5 0 .9-.3 1.2-.7l10.7-20.9c.6-1.2 2.5-.8 2.5.6v19.7c0 .7.6 1.3 1.3 1.3h7.2c.7 0 1.3-.6 1.3-1.3v-43.5c0-.7-.6-1.3-1.3-1.3h-9c-.5 0-1 .3-1.2.7l-13.7 27.6c-.4.9-1.7.9-2.2 0z"/><path d="m253.7 41.4c-13.1 0-23.4 10.3-23.4 23.4s10.3 23.3 23.4 23.3 23.4-10.3 23.4-23.3c0-13.1-10.3-23.4-23.4-23.4zm0 38c-7.6 0-13.6-6.4-13.6-14.6 0-7.2 5.1-14.6 13.6-14.6s13.6 7.4 13.6 14.6c-.1 8.2-6 14.6-13.6 14.6z"/><path d="m314.4 68.5-17.7-26.3c-.2-.3-.6-.5-.9-.5h-8.5c-.6 0-1.1.5-1.1 1.1v43.8c0 .6.5 1.1 1.1 1.1h7.6c.6 0 1.1-.5 1.1-1.1v-25c0-1.1 1.5-1.6 2.1-.6l17.7 26.2c.2.3.6.5.9.5h8.6c.6 0 1.1-.5 1.1-1.1v-43.7c0-.6-.5-1.1-1.1-1.1h-7.6c-.6 0-1.1.5-1.1 1.1v25c-.1 1.1-1.6 1.5-2.2.6z"/><path d="m381.4 87.8h7.5c.7 0 1.2-.5 1.2-1.2v-43.7c0-.7-.5-1.2-1.2-1.2h-7.5c-.7 0-1.2.5-1.2 1.2v43.8c0 .6.6 1.1 1.2 1.1z"/><path d="m411.9 68.4h15.3c.7 0 1.3-.6 1.3-1.3v-6.2c0-.7-.6-1.3-1.3-1.3h-15.3c-.7 0-1.3-.6-1.3-1.3v-6.4c0-.7.6-1.3 1.3-1.3h19.4c.7 0 1.3-.6 1.3-1.3v-6.1c0-.7-.6-1.3-1.3-1.3h-29.2c-.7 0-1.3.6-1.3 1.3v43.5c0 .7.6 1.3 1.3 1.3h30.3c.7 0 1.3-.6 1.3-1.3v-6.1c0-.7-.6-1.3-1.3-1.3h-20.5c-.7 0-1.3-.6-1.3-1.3v-8c0-1 .6-1.6 1.3-1.6z"/><path d="m471.7 69.1c0 4.7-1.6 10.3-9 10.3-7.9 0-9.1-6.4-9.1-10.3v-26.2c0-.6-.5-1.2-1.2-1.2h-7.5c-.6 0-1.2.5-1.2 1.2v26.2c0 4.5 1.4 19 18.9 19 11.8 0 18.8-7.1 18.8-19v-26.2c0-.6-.5-1.2-1.2-1.2h-7.5c-.6 0-1.2.5-1.2 1.2v26.2z"/><path d="m527.3 58.6c0-9.4-7.4-16.8-16.8-16.9h-17.4c-.5 0-.9.4-.9.9v44.3c0 .5.4.9.9.9h8c.5 0 .9-.4.9-.9v-10.5c0-.5.4-.9.9-.9h5.5c.3 0 .6.2.8.4l7.8 11.5c.2.3.5.4.8.4h9.2c.8 0 1.2-.8.8-1.5l-8.4-12.3c-.3-.4-.2-1 .3-1.3 4.8-3 7.6-8.2 7.6-14.1zm-25.3-7.2c0-.5.4-.9.9-.9h7.4c4 0 7 3.5 7 8.1s-3 8.1-7 8.1h-7.4c-.5 0-.9-.4-.9-.9z"/><path d="m598.3 54.3c0-6.9-5.4-12.6-12.1-12.6h-17.5c-.6 0-1.1.5-1.1 1.1v43.9c0 .6.5 1.1 1.1 1.1h17.5c8 0 14.4-6.7 14.4-14.8 0-4.4-1.8-8.3-5.1-11 1.8-2.1 2.8-4.8 2.8-7.7zm-12.1 24.8h-7.7c-.6 0-1.1-.5-1.1-1.1v-9.9c0-.6.5-1.1 1.1-1.1h7.9c2.4.1 4.4 2.8 4.4 6.1-.1 3.3-2.1 6-4.6 6zm-.5-20.9h-7.2c-.6 0-1.1-.5-1.1-1.1v-5.4c0-.6.5-1.1 1.1-1.1h7.1c1.9 0 2.8 1.9 2.8 3.8 0 1.7-.9 3.6-2.7 3.8z"/><path d="m610.8 87.8h8.5c.4 0 .7-.3.7-.7v-44.7c0-.4-.3-.7-.7-.7h-8.5c-.4 0-.7.3-.7.7v44.7c0 .4.3.7.7.7z"/><path d="m662.3 41.7h-32.3c-.6 0-1.1.5-1.1 1.1v6.6c0 .6.5 1.1 1.1 1.1h19.1c.9 0 1.4 1 .8 1.7l-20.8 26.5c-.1.2-.2.4-.2.7v7.4c0 .6.5 1.1 1.1 1.1h32.3c.6 0 1.1-.5 1.1-1.1v-6.6c0-.6-.5-1.1-1.1-1.1h-19.2c-.9 0-1.4-1-.8-1.7l20.9-26.5c.1-.2.2-.4.2-.7v-7.4c0-.6-.5-1.1-1.1-1.1z"/><path d="m356.5 61.3-1.1-.4c-4.8-1.9-8.2-3.4-8.2-6.7 0-2.8 2.8-4 5.4-4 5 0 8.7 3.2 10.4 5.1l.4.5c.4.4 1 .7 1.8-.1l4.7-4.5.4-.4c.3-.3.5-.7-.1-1.4l-.4-.4c-4.5-4.9-10.1-7.5-16.5-7.5-10 0-16 6.8-16 13.4 0 8.4 7.6 11.6 13.2 14l.6.3c6.2 2.6 8.9 3.9 8.9 6.2 0 3.6-4.6 4.2-7.2 4.2-4.2 0-8.3-2.6-10.2-5.1l-.3-.4c-1-1.1-1.5-.6-2.1 0l-4.8 4.8c-.4.4-.7.9-.2 1.5l.5.6c4.2 4.5 10.6 7.3 16.9 7.3h.2c10.4-.1 17.1-5.3 17.1-13.4.1-8.3-8.4-11.6-13.4-13.6z"/></g></svg>